#!OML:ASF X:\für Bonn\!DataBase\2005_08_12_Daniel\c3d\Daniel.ASF
:FULLY-SPECIFIED
:DEGREES
141
root -0.163981 12.358 1.47487 182.155 -9.90871 -188.316
lowerback 81.3759 -10.1949 20.4492
upperback 9.67331 -3.70858 -2.10699
thorax -8.14258 -4.57808 -7.75746
lowerneck 5.98282 -8.65774 -1.77198
upperneck 7.24237 -12.1748 3.01789
head 1.59151 -6.1288 1.24852
rclavicle -6.36111e-015 -1.80894e-014
rhumerus 222.381 -156.717 -256.381
rradius 7.94499
rwrist 26.0849
rhand -41.4804 18.5069
rfingers 7.12502
rthumb -14.3946 -10.974
lclavicle -6.36111e-015 -1.80894e-014
lhumerus -26.5208 -16.7105 93.5962
lradius 53.3263
lwrist 10.4819
lhand -10.6362 -9.1172
lfingers 7.12502
lthumb 15.371 20.2914
rfemur -72.7721 -13.2201 8.85907
rtibia 110.001
rfoot -34.9036 -2.28011
rtoes -20.3063
lfemur -72.08 0.697593 -28.4945
ltibia 106.271
lfoot -32.4781 -17.3842
ltoes -2.24878
142
root -0.171062 12.3117 1.46512 182.066 -9.94181 -188.351
lowerback 81.3613 -10.2246 20.447
upperback 9.65231 -3.73785 -2.08318
thorax -8.17067 -4.59818 -7.712
lowerneck 5.95221 -8.65472 -1.77681
upperneck 7.34615 -12.1808 2.98432
head 1.62812 -6.13287 1.2346
rclavicle -1.27222e-014 -3.18055e-014
rhumerus 222.306 -156.73 -256.353
rradius 7.81373
rwrist 26.4356
rhand -42.0733 18.8732
rfingers 7.12502
rthumb -14.9657 -10.5661
lclavicle -1.27222e-014 -3.18055e-014
lhumerus -26.5876 -16.7521 93.6434
lradius 53.2616
lwrist 10.5335
lhand -10.6067 -9.25238
lfingers 7.12502
lthumb 15.3994 20.1541
rfemur -73.0138 -13.3884 8.80176
rtibia 110.512
rfoot -34.9547 -2.28412
rtoes -20.4489
lfemur -72.2727 0.795848 -28.5766
ltibia 106.718
lfoot -32.5263 -17.5442
ltoes -2.00522
143
root -0.177854 12.2686 1.45669 181.949 -9.95381 -188.386
lowerback 81.3965 -10.2322 20.4144
upperback 9.61986 -3.76125 -2.05358
thorax -8.20876 -4.62066 -7.64928
lowerneck 5.87389 -8.65037 -1.7527
upperneck 7.48265 -12.1832 2.89599
head 1.67729 -6.13494 1.19601
rclavicle -3.49861e-014 1.23246e-014
rhumerus 222.243 -156.761 -256.325
rradius 7.65247
rwrist 26.8002
rhand -42.7264 19.2662
rfingers 7.12502
rthumb -15.5948 -10.1251
lclavicle -3.49861e-014 1.23246e-014
lhumerus -26.6711 -16.7263 93.6858
lradius 53.2135
lwrist 10.5177
lhand -10.5557 -9.2992
lfingers 7.12502
lthumb 15.4484 20.1035
rfemur -73.2138 -13.5167 8.72967
rtibia 111
rfoot -34.9983 -2.29074
rtoes -20.6288
lfemur -72.4196 0.914191 -28.6632
ltibia 107.148
lfoot -32.5933 -17.6634
ltoes -1.84565
144
root -0.185797 12.2265 1.44775 181.859 -9.98688 -188.422
lowerback 81.3794 -10.266 20.4141
upperback 9.60234 -3.79602 -2.04023
thorax -8.23452 -4.64116 -7.61531
lowerneck 5.77543 -8.6601 -1.69787
upperneck 7.60449 -12.1999 2.79704
head 1.72278 -6.1428 1.14865
rclavicle -1.27222e-013 3.26007e-014
rhumerus 222.157 -156.782 -256.33
rradius 7.55092
rwrist 27.1215
rhand -43.3064 19.6412
rfingers 7.12502
rthumb -16.1534 -9.70563
lclavicle -1.27222e-013 3.26007e-014
lhumerus -26.727 -16.7033 93.7169
lradius 53.1208
lwrist 10.5153
lhand -10.4667 -9.34958
lfingers 7.12502
lthumb 15.5342 20.0465
rfemur -73.4232 -13.6931 8.65891
rtibia 111.464
rfoot -35.0468 -2.27692
rtoes -20.7312
lfemur -72.5759 1.01115 -28.7571
ltibia 107.554
lfoot -32.6342 -17.7803
ltoes -1.60468
145
root -0.193752 12.1878 1.4396 181.8 -9.9934 -188.471
lowerback 81.3278 -10.2438 20.3804
upperback 9.60798 -3.81212 -2.00195
thorax -8.23865 -4.65596 -7.55178
lowerneck 5.62529 -8.6655 -1.6976
upperneck 7.73926 -12.2143 2.71887
head 1.78621 -6.15004 1.11335
rclavicle 7.31528e-014 4.29375e-014
rhumerus 222.073 -156.785 -256.289
rradius 7.46955
rwrist 27.449
rhand -43.9148 20.0506
rfingers 7.12502
rthumb -16.7392 -9.24776
lclavicle 7.31528e-014 4.29375e-014
lhumerus -26.715 -16.6876 93.7658
lradius 52.973
lwrist 10.5524
lhand -10.4075 -9.40039
lfingers 7.12502
lthumb 15.5912 19.9912
rfemur -73.6511 -13.8121 8.56469
rtibia 111.897
rfoot -35.0625 -2.25685
rtoes -20.8476
lfemur -72.7566 1.09451 -28.8619
ltibia 107.937
lfoot -32.6924 -17.8709
ltoes -1.44603
146
root -0.201421 12.1515 1.43154 181.726 -10.0136 -188.489
lowerback 81.2685 -10.2383 20.3814
upperback 9.62136 -3.82235 -1.97304
thorax -8.22941 -4.66574 -7.51476
lowerneck 5.43554 -8.68158 -1.65273
upperneck 7.90387 -12.2413 2.63388
head 1.86305 -6.16149 1.06611
rclavicle 6.04305e-014 -1.63003e-014
rhumerus 222.002 -156.758 -256.268
rradius 7.37625
rwrist 27.7779
rhand -44.4703 20.4194
rfingers 7.12502
rthumb -17.2739 -8.83289
lclavicle 6.04305e-014 -1.63003e-014
lhumerus -26.6654 -16.67 93.7728
lradius 52.8067
lwrist 10.5069
lhand -10.2775 -9.42117
lfingers 7.12502
lthumb 15.7164 19.9606
rfemur -73.8452 -13.944 8.51648
rtibia 112.3
rfoot -35.073 -2.2824
rtoes -20.995
lfemur -72.8982 1.17659 -28.9309
ltibia 108.293
lfoot -32.7331 -17.9741
ltoes -1.34944
